<mxfile host="app.diagrams.net" modified="2023-10-24T17:13:09.893Z" agent="Mozilla/5.0 (Windows NT 10.0; Win64; x64) AppleWebKit/537.36 (KHTML, like Gecko) Chrome/118.0.0.0 Safari/537.36" etag="nVUASvFFewWwqAisV2Y-" version="22.0.7" type="github">
  <diagram name="第 1 页" id="B6m6dbkBmQT-ahuXmPjY">
    <mxGraphModel dx="862" dy="429" grid="1" gridSize="10" guides="1" tooltips="1" connect="1" arrows="1" fold="1" page="1" pageScale="1" pageWidth="827" pageHeight="1169" math="0" shadow="0">
      <root>
        <mxCell id="0" />
        <mxCell id="1" parent="0" />
        <mxCell id="SuSB0mW6HSkaDCHEBQPA-4" value="«Java Server Page»&lt;br&gt;addBook" style="html=1;dropTarget=0;whiteSpace=wrap;" vertex="1" parent="1">
          <mxGeometry x="80" y="90" width="180" height="60" as="geometry" />
        </mxCell>
        <mxCell id="SuSB0mW6HSkaDCHEBQPA-5" value="" style="shape=module;jettyWidth=8;jettyHeight=4;" vertex="1" parent="SuSB0mW6HSkaDCHEBQPA-4">
          <mxGeometry x="1" width="20" height="20" relative="1" as="geometry">
            <mxPoint x="-27" y="7" as="offset" />
          </mxGeometry>
        </mxCell>
        <mxCell id="SuSB0mW6HSkaDCHEBQPA-6" value="系統體系結構" style="shape=umlFrame;whiteSpace=wrap;html=1;pointerEvents=0;width=80;height=40;" vertex="1" parent="1">
          <mxGeometry x="40" y="40" width="720" height="480" as="geometry" />
        </mxCell>
        <mxCell id="SuSB0mW6HSkaDCHEBQPA-7" value="«Java Server Page»&lt;br&gt;modifyBook" style="html=1;dropTarget=0;whiteSpace=wrap;" vertex="1" parent="1">
          <mxGeometry x="80" y="170" width="180" height="60" as="geometry" />
        </mxCell>
        <mxCell id="SuSB0mW6HSkaDCHEBQPA-8" value="" style="shape=module;jettyWidth=8;jettyHeight=4;" vertex="1" parent="SuSB0mW6HSkaDCHEBQPA-7">
          <mxGeometry x="1" width="20" height="20" relative="1" as="geometry">
            <mxPoint x="-27" y="7" as="offset" />
          </mxGeometry>
        </mxCell>
        <mxCell id="SuSB0mW6HSkaDCHEBQPA-9" value="«Java Server Page»&lt;br&gt;queryBook" style="html=1;dropTarget=0;whiteSpace=wrap;" vertex="1" parent="1">
          <mxGeometry x="80" y="250" width="180" height="60" as="geometry" />
        </mxCell>
        <mxCell id="SuSB0mW6HSkaDCHEBQPA-10" value="" style="shape=module;jettyWidth=8;jettyHeight=4;" vertex="1" parent="SuSB0mW6HSkaDCHEBQPA-9">
          <mxGeometry x="1" width="20" height="20" relative="1" as="geometry">
            <mxPoint x="-27" y="7" as="offset" />
          </mxGeometry>
        </mxCell>
        <mxCell id="SuSB0mW6HSkaDCHEBQPA-11" value="«Java Server Page»&lt;br&gt;recordBook" style="html=1;dropTarget=0;whiteSpace=wrap;" vertex="1" parent="1">
          <mxGeometry x="80" y="330" width="180" height="60" as="geometry" />
        </mxCell>
        <mxCell id="SuSB0mW6HSkaDCHEBQPA-12" value="" style="shape=module;jettyWidth=8;jettyHeight=4;" vertex="1" parent="SuSB0mW6HSkaDCHEBQPA-11">
          <mxGeometry x="1" width="20" height="20" relative="1" as="geometry">
            <mxPoint x="-27" y="7" as="offset" />
          </mxGeometry>
        </mxCell>
        <mxCell id="SuSB0mW6HSkaDCHEBQPA-13" value="«Java Server Page»&lt;br&gt;queryrent" style="html=1;dropTarget=0;whiteSpace=wrap;" vertex="1" parent="1">
          <mxGeometry x="80" y="410" width="180" height="60" as="geometry" />
        </mxCell>
        <mxCell id="SuSB0mW6HSkaDCHEBQPA-14" value="" style="shape=module;jettyWidth=8;jettyHeight=4;" vertex="1" parent="SuSB0mW6HSkaDCHEBQPA-13">
          <mxGeometry x="1" width="20" height="20" relative="1" as="geometry">
            <mxPoint x="-27" y="7" as="offset" />
          </mxGeometry>
        </mxCell>
        <mxCell id="SuSB0mW6HSkaDCHEBQPA-15" value="«Java Beans»&lt;br&gt;Book" style="html=1;dropTarget=0;whiteSpace=wrap;" vertex="1" parent="1">
          <mxGeometry x="320" y="170" width="180" height="60" as="geometry" />
        </mxCell>
        <mxCell id="SuSB0mW6HSkaDCHEBQPA-16" value="" style="shape=module;jettyWidth=8;jettyHeight=4;" vertex="1" parent="SuSB0mW6HSkaDCHEBQPA-15">
          <mxGeometry x="1" width="20" height="20" relative="1" as="geometry">
            <mxPoint x="-27" y="7" as="offset" />
          </mxGeometry>
        </mxCell>
        <mxCell id="SuSB0mW6HSkaDCHEBQPA-17" value="«Java Beans»&lt;br&gt;Rent" style="html=1;dropTarget=0;whiteSpace=wrap;" vertex="1" parent="1">
          <mxGeometry x="320" y="370" width="180" height="60" as="geometry" />
        </mxCell>
        <mxCell id="SuSB0mW6HSkaDCHEBQPA-18" value="" style="shape=module;jettyWidth=8;jettyHeight=4;" vertex="1" parent="SuSB0mW6HSkaDCHEBQPA-17">
          <mxGeometry x="1" width="20" height="20" relative="1" as="geometry">
            <mxPoint x="-27" y="7" as="offset" />
          </mxGeometry>
        </mxCell>
        <mxCell id="SuSB0mW6HSkaDCHEBQPA-19" value="«Java Beans»&lt;br&gt;DBManager" style="html=1;dropTarget=0;whiteSpace=wrap;" vertex="1" parent="1">
          <mxGeometry x="480" y="270" width="180" height="60" as="geometry" />
        </mxCell>
        <mxCell id="SuSB0mW6HSkaDCHEBQPA-20" value="" style="shape=module;jettyWidth=8;jettyHeight=4;" vertex="1" parent="SuSB0mW6HSkaDCHEBQPA-19">
          <mxGeometry x="1" width="20" height="20" relative="1" as="geometry">
            <mxPoint x="-27" y="7" as="offset" />
          </mxGeometry>
        </mxCell>
        <mxCell id="SuSB0mW6HSkaDCHEBQPA-21" value="JDBC" style="shape=folder;fontStyle=1;spacingTop=10;tabWidth=40;tabHeight=14;tabPosition=left;html=1;whiteSpace=wrap;" vertex="1" parent="1">
          <mxGeometry x="640" y="90" width="70" height="50" as="geometry" />
        </mxCell>
        <mxCell id="SuSB0mW6HSkaDCHEBQPA-25" value="" style="endArrow=open;endSize=12;dashed=1;html=1;rounded=0;exitX=1;exitY=0.5;exitDx=0;exitDy=0;entryX=0;entryY=0;entryDx=0;entryDy=0;" edge="1" parent="1" source="SuSB0mW6HSkaDCHEBQPA-4" target="SuSB0mW6HSkaDCHEBQPA-15">
          <mxGeometry x="-0.2131" y="26" width="160" relative="1" as="geometry">
            <mxPoint x="330" y="190" as="sourcePoint" />
            <mxPoint x="490" y="190" as="targetPoint" />
            <mxPoint as="offset" />
          </mxGeometry>
        </mxCell>
        <mxCell id="SuSB0mW6HSkaDCHEBQPA-26" value="" style="endArrow=open;endSize=12;dashed=1;html=1;rounded=0;exitX=1;exitY=0.5;exitDx=0;exitDy=0;entryX=0;entryY=0.5;entryDx=0;entryDy=0;" edge="1" parent="1" source="SuSB0mW6HSkaDCHEBQPA-7" target="SuSB0mW6HSkaDCHEBQPA-15">
          <mxGeometry x="-0.2131" y="26" width="160" relative="1" as="geometry">
            <mxPoint x="270" y="130" as="sourcePoint" />
            <mxPoint x="330" y="180" as="targetPoint" />
            <mxPoint as="offset" />
          </mxGeometry>
        </mxCell>
        <mxCell id="SuSB0mW6HSkaDCHEBQPA-27" value="" style="endArrow=open;endSize=12;dashed=1;html=1;rounded=0;exitX=1;exitY=0.5;exitDx=0;exitDy=0;entryX=0;entryY=1;entryDx=0;entryDy=0;" edge="1" parent="1" source="SuSB0mW6HSkaDCHEBQPA-9" target="SuSB0mW6HSkaDCHEBQPA-15">
          <mxGeometry x="-0.2131" y="26" width="160" relative="1" as="geometry">
            <mxPoint x="270" y="210" as="sourcePoint" />
            <mxPoint x="330" y="210" as="targetPoint" />
            <mxPoint as="offset" />
          </mxGeometry>
        </mxCell>
        <mxCell id="SuSB0mW6HSkaDCHEBQPA-29" value="" style="endArrow=open;endSize=12;dashed=1;html=1;rounded=0;exitX=1;exitY=0.5;exitDx=0;exitDy=0;entryX=0;entryY=0.25;entryDx=0;entryDy=0;" edge="1" parent="1" source="SuSB0mW6HSkaDCHEBQPA-11" target="SuSB0mW6HSkaDCHEBQPA-17">
          <mxGeometry x="-0.2131" y="26" width="160" relative="1" as="geometry">
            <mxPoint x="270" y="290" as="sourcePoint" />
            <mxPoint x="330" y="240" as="targetPoint" />
            <mxPoint as="offset" />
          </mxGeometry>
        </mxCell>
        <mxCell id="SuSB0mW6HSkaDCHEBQPA-30" value="" style="endArrow=open;endSize=12;dashed=1;html=1;rounded=0;exitX=1;exitY=0.5;exitDx=0;exitDy=0;entryX=0;entryY=0.75;entryDx=0;entryDy=0;" edge="1" parent="1" source="SuSB0mW6HSkaDCHEBQPA-13" target="SuSB0mW6HSkaDCHEBQPA-17">
          <mxGeometry x="-0.2131" y="26" width="160" relative="1" as="geometry">
            <mxPoint x="270" y="370" as="sourcePoint" />
            <mxPoint x="330" y="395" as="targetPoint" />
            <mxPoint as="offset" />
          </mxGeometry>
        </mxCell>
        <mxCell id="SuSB0mW6HSkaDCHEBQPA-31" value="" style="endArrow=open;endSize=12;dashed=1;html=1;rounded=0;exitX=1;exitY=0.5;exitDx=0;exitDy=0;entryX=0.5;entryY=0;entryDx=0;entryDy=0;" edge="1" parent="1" source="SuSB0mW6HSkaDCHEBQPA-15" target="SuSB0mW6HSkaDCHEBQPA-19">
          <mxGeometry x="-0.2131" y="26" width="160" relative="1" as="geometry">
            <mxPoint x="270" y="370" as="sourcePoint" />
            <mxPoint x="330" y="395" as="targetPoint" />
            <mxPoint as="offset" />
          </mxGeometry>
        </mxCell>
        <mxCell id="SuSB0mW6HSkaDCHEBQPA-32" value="" style="endArrow=open;endSize=12;dashed=1;html=1;rounded=0;exitX=1;exitY=0.5;exitDx=0;exitDy=0;entryX=0.5;entryY=1;entryDx=0;entryDy=0;" edge="1" parent="1" source="SuSB0mW6HSkaDCHEBQPA-17" target="SuSB0mW6HSkaDCHEBQPA-19">
          <mxGeometry x="-0.2131" y="26" width="160" relative="1" as="geometry">
            <mxPoint x="510" y="210" as="sourcePoint" />
            <mxPoint x="559" y="280" as="targetPoint" />
            <mxPoint as="offset" />
          </mxGeometry>
        </mxCell>
        <mxCell id="SuSB0mW6HSkaDCHEBQPA-33" value="" style="endArrow=block;dashed=1;endFill=0;endSize=12;html=1;rounded=0;entryX=0.5;entryY=1;entryDx=0;entryDy=0;entryPerimeter=0;exitX=0.75;exitY=0;exitDx=0;exitDy=0;" edge="1" parent="1" source="SuSB0mW6HSkaDCHEBQPA-19" target="SuSB0mW6HSkaDCHEBQPA-21">
          <mxGeometry width="160" relative="1" as="geometry">
            <mxPoint x="330" y="390" as="sourcePoint" />
            <mxPoint x="490" y="390" as="targetPoint" />
          </mxGeometry>
        </mxCell>
      </root>
    </mxGraphModel>
  </diagram>
</mxfile>
